<mxfile host="app.diagrams.net" agent="Mozilla/5.0 (Windows NT 10.0; Win64; x64) AppleWebKit/537.36 (KHTML, like Gecko) Chrome/130.0.0.0 Safari/537.36" version="24.7.17">
  <diagram name="Seite-1" id="J5gAzzOq90zy7a5GpCv6">
    <mxGraphModel dx="2462" dy="943" grid="1" gridSize="10" guides="1" tooltips="1" connect="1" arrows="1" fold="1" page="1" pageScale="1" pageWidth="1169" pageHeight="827" math="0" shadow="0">
      <root>
        <mxCell id="0" />
        <mxCell id="1" parent="0" />
        <mxCell id="Og27VRg0LuSG9dP3xYZT-33" style="edgeStyle=orthogonalEdgeStyle;rounded=0;orthogonalLoop=1;jettySize=auto;html=1;endArrow=none;endFill=0;" parent="1" source="Og27VRg0LuSG9dP3xYZT-1" target="Og27VRg0LuSG9dP3xYZT-11" edge="1">
          <mxGeometry relative="1" as="geometry" />
        </mxCell>
        <mxCell id="Og27VRg0LuSG9dP3xYZT-1" value="&lt;b&gt;Sequenz 2:&lt;/b&gt;&lt;div&gt;Greifen&lt;/div&gt;" style="rounded=0;whiteSpace=wrap;html=1;fillColor=#ffe6cc;strokeColor=#d79b00;" parent="1" vertex="1">
          <mxGeometry x="265" y="120" width="200" height="50" as="geometry" />
        </mxCell>
        <mxCell id="Og27VRg0LuSG9dP3xYZT-29" style="edgeStyle=orthogonalEdgeStyle;rounded=0;orthogonalLoop=1;jettySize=auto;html=1;entryX=0.5;entryY=0;entryDx=0;entryDy=0;" parent="1" source="Og27VRg0LuSG9dP3xYZT-5" target="Og27VRg0LuSG9dP3xYZT-9" edge="1">
          <mxGeometry relative="1" as="geometry" />
        </mxCell>
        <mxCell id="Og27VRg0LuSG9dP3xYZT-5" value="S1: Bild aufnehmen" style="rounded=0;whiteSpace=wrap;html=1;fillColor=#fff2cc;strokeColor=#d6b656;" parent="1" vertex="1">
          <mxGeometry x="65" y="260" width="160" height="40" as="geometry" />
        </mxCell>
        <mxCell id="Og27VRg0LuSG9dP3xYZT-39" style="edgeStyle=orthogonalEdgeStyle;rounded=0;orthogonalLoop=1;jettySize=auto;html=1;endArrow=none;endFill=0;" parent="1" source="Og27VRg0LuSG9dP3xYZT-6" target="Og27VRg0LuSG9dP3xYZT-17" edge="1">
          <mxGeometry relative="1" as="geometry" />
        </mxCell>
        <mxCell id="Og27VRg0LuSG9dP3xYZT-6" value="&lt;b&gt;Sequenz 3:&lt;/b&gt;&lt;div&gt;Ausrichten&lt;/div&gt;" style="rounded=0;whiteSpace=wrap;html=1;fillColor=#ffe6cc;strokeColor=#d79b00;" parent="1" vertex="1">
          <mxGeometry x="484" y="120" width="200" height="50" as="geometry" />
        </mxCell>
        <mxCell id="Og27VRg0LuSG9dP3xYZT-40" style="edgeStyle=orthogonalEdgeStyle;rounded=0;orthogonalLoop=1;jettySize=auto;html=1;entryX=0.5;entryY=0;entryDx=0;entryDy=0;endArrow=none;endFill=0;" parent="1" source="Og27VRg0LuSG9dP3xYZT-7" target="Og27VRg0LuSG9dP3xYZT-25" edge="1">
          <mxGeometry relative="1" as="geometry" />
        </mxCell>
        <mxCell id="Og27VRg0LuSG9dP3xYZT-7" value="&lt;b&gt;Sequenz 5:&lt;/b&gt;&lt;div&gt;Drücken&lt;/div&gt;" style="rounded=0;whiteSpace=wrap;html=1;fillColor=#ffe6cc;strokeColor=#d79b00;" parent="1" vertex="1">
          <mxGeometry x="925" y="120" width="200" height="50" as="geometry" />
        </mxCell>
        <mxCell id="O4lplNsLbGkgZ4gadCFN-9" style="edgeStyle=orthogonalEdgeStyle;rounded=0;orthogonalLoop=1;jettySize=auto;html=1;endArrow=none;endFill=0;" parent="1" source="Og27VRg0LuSG9dP3xYZT-8" target="O4lplNsLbGkgZ4gadCFN-5" edge="1">
          <mxGeometry relative="1" as="geometry" />
        </mxCell>
        <mxCell id="Og27VRg0LuSG9dP3xYZT-8" value="&lt;b&gt;Sequenz 4:&lt;/b&gt;&lt;div&gt;Positionieren&lt;/div&gt;" style="rounded=0;whiteSpace=wrap;html=1;fillColor=#ffe6cc;strokeColor=#d79b00;" parent="1" vertex="1">
          <mxGeometry x="700" y="120" width="200" height="50" as="geometry" />
        </mxCell>
        <mxCell id="Og27VRg0LuSG9dP3xYZT-30" style="edgeStyle=orthogonalEdgeStyle;rounded=0;orthogonalLoop=1;jettySize=auto;html=1;" parent="1" source="Og27VRg0LuSG9dP3xYZT-9" target="Og27VRg0LuSG9dP3xYZT-12" edge="1">
          <mxGeometry relative="1" as="geometry" />
        </mxCell>
        <mxCell id="Og27VRg0LuSG9dP3xYZT-9" value="S2: Objekt erkennen" style="rounded=0;whiteSpace=wrap;html=1;fillColor=#fff2cc;strokeColor=#d6b656;" parent="1" vertex="1">
          <mxGeometry x="65" y="320" width="160" height="40" as="geometry" />
        </mxCell>
        <mxCell id="Og27VRg0LuSG9dP3xYZT-48" style="edgeStyle=orthogonalEdgeStyle;rounded=0;orthogonalLoop=1;jettySize=auto;html=1;entryX=0.5;entryY=0;entryDx=0;entryDy=0;" parent="1" source="Og27VRg0LuSG9dP3xYZT-10" target="Og27VRg0LuSG9dP3xYZT-46" edge="1">
          <mxGeometry relative="1" as="geometry" />
        </mxCell>
        <mxCell id="Og27VRg0LuSG9dP3xYZT-10" value="S5: Backen öffnen" style="rounded=0;whiteSpace=wrap;html=1;fillColor=#fff2cc;strokeColor=#d6b656;" parent="1" vertex="1">
          <mxGeometry x="945" y="340" width="160" height="40" as="geometry" />
        </mxCell>
        <mxCell id="Og27VRg0LuSG9dP3xYZT-34" style="edgeStyle=orthogonalEdgeStyle;rounded=0;orthogonalLoop=1;jettySize=auto;html=1;entryX=0.5;entryY=0;entryDx=0;entryDy=0;" parent="1" source="Og27VRg0LuSG9dP3xYZT-11" target="Og27VRg0LuSG9dP3xYZT-31" edge="1">
          <mxGeometry relative="1" as="geometry" />
        </mxCell>
        <mxCell id="Og27VRg0LuSG9dP3xYZT-11" value="S4: Position anfahren" style="rounded=0;whiteSpace=wrap;html=1;fillColor=#fff2cc;strokeColor=#d6b656;" parent="1" vertex="1">
          <mxGeometry x="285" y="200" width="160" height="40" as="geometry" />
        </mxCell>
        <mxCell id="Og27VRg0LuSG9dP3xYZT-12" value="S3: Position ermitteln" style="rounded=0;whiteSpace=wrap;html=1;fillColor=#fff2cc;strokeColor=#d6b656;" parent="1" vertex="1">
          <mxGeometry x="65" y="380" width="160" height="40" as="geometry" />
        </mxCell>
        <mxCell id="Og27VRg0LuSG9dP3xYZT-28" style="edgeStyle=orthogonalEdgeStyle;rounded=0;orthogonalLoop=1;jettySize=auto;html=1;" parent="1" source="Og27VRg0LuSG9dP3xYZT-15" target="Og27VRg0LuSG9dP3xYZT-5" edge="1">
          <mxGeometry relative="1" as="geometry" />
        </mxCell>
        <mxCell id="Og27VRg0LuSG9dP3xYZT-15" value="S4: Position anfahren" style="rounded=0;whiteSpace=wrap;html=1;fillColor=#fff2cc;strokeColor=#d6b656;" parent="1" vertex="1">
          <mxGeometry x="65" y="200" width="160" height="40" as="geometry" />
        </mxCell>
        <mxCell id="O4lplNsLbGkgZ4gadCFN-2" style="edgeStyle=orthogonalEdgeStyle;rounded=0;orthogonalLoop=1;jettySize=auto;html=1;" parent="1" source="Og27VRg0LuSG9dP3xYZT-17" target="Og27VRg0LuSG9dP3xYZT-50" edge="1">
          <mxGeometry relative="1" as="geometry" />
        </mxCell>
        <mxCell id="Og27VRg0LuSG9dP3xYZT-17" value="S4: Position anfahren" style="rounded=0;whiteSpace=wrap;html=1;fillColor=#fff2cc;strokeColor=#d6b656;" parent="1" vertex="1">
          <mxGeometry x="504" y="200" width="160" height="40" as="geometry" />
        </mxCell>
        <mxCell id="O4lplNsLbGkgZ4gadCFN-14" style="edgeStyle=orthogonalEdgeStyle;rounded=0;orthogonalLoop=1;jettySize=auto;html=1;entryX=0.5;entryY=0;entryDx=0;entryDy=0;" parent="1" source="Og27VRg0LuSG9dP3xYZT-25" target="Og27VRg0LuSG9dP3xYZT-44" edge="1">
          <mxGeometry relative="1" as="geometry" />
        </mxCell>
        <mxCell id="Og27VRg0LuSG9dP3xYZT-25" value="S4: Position anfahren" style="rounded=0;whiteSpace=wrap;html=1;fillColor=#fff2cc;strokeColor=#d6b656;" parent="1" vertex="1">
          <mxGeometry x="945" y="200" width="160" height="40" as="geometry" />
        </mxCell>
        <mxCell id="Og27VRg0LuSG9dP3xYZT-27" style="edgeStyle=orthogonalEdgeStyle;rounded=0;orthogonalLoop=1;jettySize=auto;html=1;entryX=0.5;entryY=0;entryDx=0;entryDy=0;endArrow=none;endFill=0;" parent="1" source="Og27VRg0LuSG9dP3xYZT-26" target="Og27VRg0LuSG9dP3xYZT-15" edge="1">
          <mxGeometry relative="1" as="geometry" />
        </mxCell>
        <mxCell id="Og27VRg0LuSG9dP3xYZT-26" value="&lt;b&gt;Sequenz 1:&lt;/b&gt;&lt;div&gt;Position ermitteln&lt;/div&gt;" style="rounded=0;whiteSpace=wrap;html=1;fillColor=#ffe6cc;strokeColor=#d79b00;" parent="1" vertex="1">
          <mxGeometry x="45" y="120" width="200" height="50" as="geometry" />
        </mxCell>
        <mxCell id="Og27VRg0LuSG9dP3xYZT-35" style="edgeStyle=orthogonalEdgeStyle;rounded=0;orthogonalLoop=1;jettySize=auto;html=1;entryX=0.5;entryY=0;entryDx=0;entryDy=0;" parent="1" source="Og27VRg0LuSG9dP3xYZT-31" target="Og27VRg0LuSG9dP3xYZT-32" edge="1">
          <mxGeometry relative="1" as="geometry" />
        </mxCell>
        <mxCell id="Og27VRg0LuSG9dP3xYZT-31" value="S7: Backen schliessen" style="rounded=0;whiteSpace=wrap;html=1;fillColor=#fff2cc;strokeColor=#d6b656;" parent="1" vertex="1">
          <mxGeometry x="285" y="270" width="160" height="40" as="geometry" />
        </mxCell>
        <mxCell id="Og27VRg0LuSG9dP3xYZT-32" value="S4: Position anfahren" style="rounded=0;whiteSpace=wrap;html=1;fillColor=#fff2cc;strokeColor=#d6b656;" parent="1" vertex="1">
          <mxGeometry x="285" y="340" width="160" height="40" as="geometry" />
        </mxCell>
        <mxCell id="Og27VRg0LuSG9dP3xYZT-47" style="edgeStyle=orthogonalEdgeStyle;rounded=0;orthogonalLoop=1;jettySize=auto;html=1;entryX=0.5;entryY=0;entryDx=0;entryDy=0;" parent="1" source="Og27VRg0LuSG9dP3xYZT-42" target="Og27VRg0LuSG9dP3xYZT-45" edge="1">
          <mxGeometry relative="1" as="geometry" />
        </mxCell>
        <mxCell id="Og27VRg0LuSG9dP3xYZT-42" value="S6: Backen öffnen" style="rounded=0;whiteSpace=wrap;html=1;fillColor=#fff2cc;strokeColor=#d6b656;" parent="1" vertex="1">
          <mxGeometry x="504" y="414" width="160" height="40" as="geometry" />
        </mxCell>
        <mxCell id="O4lplNsLbGkgZ4gadCFN-15" style="edgeStyle=orthogonalEdgeStyle;rounded=0;orthogonalLoop=1;jettySize=auto;html=1;entryX=0.5;entryY=0;entryDx=0;entryDy=0;" parent="1" source="Og27VRg0LuSG9dP3xYZT-44" target="Og27VRg0LuSG9dP3xYZT-10" edge="1">
          <mxGeometry relative="1" as="geometry" />
        </mxCell>
        <mxCell id="Og27VRg0LuSG9dP3xYZT-44" value="S5: Anschlag anfahren" style="rounded=0;whiteSpace=wrap;html=1;fillColor=#fff2cc;strokeColor=#d6b656;" parent="1" vertex="1">
          <mxGeometry x="945" y="270" width="160" height="40" as="geometry" />
        </mxCell>
        <mxCell id="Og27VRg0LuSG9dP3xYZT-45" value="S4: Position anfahren" style="rounded=0;whiteSpace=wrap;html=1;fillColor=#fff2cc;strokeColor=#d6b656;" parent="1" vertex="1">
          <mxGeometry x="504" y="487.5" width="160" height="40" as="geometry" />
        </mxCell>
        <mxCell id="Og27VRg0LuSG9dP3xYZT-46" value="S4: Position anfahren" style="rounded=0;whiteSpace=wrap;html=1;fillColor=#fff2cc;strokeColor=#d6b656;" parent="1" vertex="1">
          <mxGeometry x="945" y="414" width="160" height="40" as="geometry" />
        </mxCell>
        <mxCell id="O4lplNsLbGkgZ4gadCFN-3" style="edgeStyle=orthogonalEdgeStyle;rounded=0;orthogonalLoop=1;jettySize=auto;html=1;" parent="1" source="Og27VRg0LuSG9dP3xYZT-50" target="O4lplNsLbGkgZ4gadCFN-1" edge="1">
          <mxGeometry relative="1" as="geometry" />
        </mxCell>
        <mxCell id="Og27VRg0LuSG9dP3xYZT-50" value="S5: Anschlag anfahren" style="rounded=0;whiteSpace=wrap;html=1;fillColor=#fff2cc;strokeColor=#d6b656;" parent="1" vertex="1">
          <mxGeometry x="504" y="270" width="160" height="40" as="geometry" />
        </mxCell>
        <mxCell id="O4lplNsLbGkgZ4gadCFN-4" style="edgeStyle=orthogonalEdgeStyle;rounded=0;orthogonalLoop=1;jettySize=auto;html=1;entryX=0.5;entryY=0;entryDx=0;entryDy=0;" parent="1" source="O4lplNsLbGkgZ4gadCFN-1" target="Og27VRg0LuSG9dP3xYZT-42" edge="1">
          <mxGeometry relative="1" as="geometry" />
        </mxCell>
        <mxCell id="O4lplNsLbGkgZ4gadCFN-1" value="S5: Anschlag anfahren" style="rounded=0;whiteSpace=wrap;html=1;fillColor=#fff2cc;strokeColor=#d6b656;" parent="1" vertex="1">
          <mxGeometry x="504" y="340" width="160" height="40" as="geometry" />
        </mxCell>
        <mxCell id="O4lplNsLbGkgZ4gadCFN-10" style="edgeStyle=orthogonalEdgeStyle;rounded=0;orthogonalLoop=1;jettySize=auto;html=1;entryX=0.5;entryY=0;entryDx=0;entryDy=0;" parent="1" source="O4lplNsLbGkgZ4gadCFN-5" target="O4lplNsLbGkgZ4gadCFN-8" edge="1">
          <mxGeometry relative="1" as="geometry" />
        </mxCell>
        <mxCell id="O4lplNsLbGkgZ4gadCFN-5" value="S4: Position anfahren" style="rounded=0;whiteSpace=wrap;html=1;fillColor=#fff2cc;strokeColor=#d6b656;" parent="1" vertex="1">
          <mxGeometry x="720" y="200" width="160" height="40" as="geometry" />
        </mxCell>
        <mxCell id="O4lplNsLbGkgZ4gadCFN-13" style="edgeStyle=orthogonalEdgeStyle;rounded=0;orthogonalLoop=1;jettySize=auto;html=1;" parent="1" source="O4lplNsLbGkgZ4gadCFN-6" target="O4lplNsLbGkgZ4gadCFN-7" edge="1">
          <mxGeometry relative="1" as="geometry" />
        </mxCell>
        <mxCell id="O4lplNsLbGkgZ4gadCFN-6" value="S6: Backen öffnen" style="rounded=0;whiteSpace=wrap;html=1;fillColor=#fff2cc;strokeColor=#d6b656;" parent="1" vertex="1">
          <mxGeometry x="720" y="340" width="160" height="40" as="geometry" />
        </mxCell>
        <mxCell id="O4lplNsLbGkgZ4gadCFN-7" value="S4: Position anfahren" style="rounded=0;whiteSpace=wrap;html=1;fillColor=#fff2cc;strokeColor=#d6b656;" parent="1" vertex="1">
          <mxGeometry x="720" y="413.5" width="160" height="40" as="geometry" />
        </mxCell>
        <mxCell id="O4lplNsLbGkgZ4gadCFN-11" style="edgeStyle=orthogonalEdgeStyle;rounded=0;orthogonalLoop=1;jettySize=auto;html=1;entryX=0.5;entryY=0;entryDx=0;entryDy=0;" parent="1" source="O4lplNsLbGkgZ4gadCFN-8" target="O4lplNsLbGkgZ4gadCFN-6" edge="1">
          <mxGeometry relative="1" as="geometry" />
        </mxCell>
        <mxCell id="O4lplNsLbGkgZ4gadCFN-8" value="S5: Anschlag anfahren" style="rounded=0;whiteSpace=wrap;html=1;fillColor=#fff2cc;strokeColor=#d6b656;" parent="1" vertex="1">
          <mxGeometry x="720" y="270" width="160" height="40" as="geometry" />
        </mxCell>
        <mxCell id="O4lplNsLbGkgZ4gadCFN-16" value="&lt;h1 style=&quot;margin-top: 0px;&quot;&gt;Frage&amp;nbsp;&lt;/h1&gt;&lt;p&gt;Brauche ich beim &quot;Drücken&quot; noch einen Skill für &quot;Ausrichtung&quot; bei welchem der Roboter selbständig die Position anpasst, wenn er merkt, dass er sich verkantet?&lt;/p&gt;" style="text;html=1;whiteSpace=wrap;overflow=hidden;rounded=0;" parent="1" vertex="1">
          <mxGeometry x="945" y="470" width="180" height="140" as="geometry" />
        </mxCell>
      </root>
    </mxGraphModel>
  </diagram>
</mxfile>
